<svg width="132" height="50" viewBox="0 0 132 50" fill="none" xmlns="http://www.w3.org/2000/svg">
<g clip-path="url(#clip0_459_5199)">
<path d="M77.8154 9.74951H82.0578V45.6654H104.628V50.0001H77.8154V9.74951Z" fill="#50533F"/>
<path d="M102.413 37.668H98.5726V35.0662H98.5056C98.123 35.8775 97.5395 36.5831 96.7551 37.1784C95.9708 37.7736 94.9042 38.076 93.5555 38.076C92.4793 38.076 91.561 37.9032 90.8102 37.5528C90.0593 37.2024 89.4471 36.7319 88.9736 36.1319C88.5001 35.5367 88.1653 34.855 87.9644 34.087C87.7635 33.3237 87.6631 32.5221 87.6631 31.6868V21.4478H91.7045V29.6611C91.7045 30.1123 91.7285 30.6115 91.7715 31.1636C91.8145 31.7156 91.9341 32.234 92.1254 32.7189C92.3167 33.2037 92.6085 33.6069 93.0007 33.9334C93.3929 34.2598 93.9477 34.423 94.6651 34.423C95.3394 34.423 95.9038 34.3126 96.363 34.087C96.8221 33.8613 97.2047 33.5589 97.506 33.1749C97.8074 32.7909 98.0274 32.3541 98.1613 31.8548C98.2952 31.3556 98.3622 30.842 98.3622 30.2995V21.4478H102.404V37.668H102.413Z" fill="#50533F"/>
<path d="M111.098 28.9506L105.507 21.4478H110.424L113.657 26.3153L117.158 21.4478H121.769L116.249 28.9506L122.749 37.668H117.833L113.624 31.8548L109.381 37.668H104.599L111.098 28.9506Z" fill="#50533F"/>
<path d="M17.6437 20.3101C16.7684 19.3644 15.9219 18.7356 15.104 18.4187C14.2862 18.1019 13.4587 17.9435 12.6313 17.9435C11.3974 17.9435 10.2782 18.1643 9.28337 18.6012C8.28377 19.0428 7.42765 19.6476 6.70545 20.4253C5.98804 21.2029 5.43323 22.1102 5.04105 23.147C4.64886 24.1839 4.45276 25.2976 4.45276 26.4929C4.45276 27.7745 4.64886 28.9602 5.04105 30.0403C5.43323 31.1204 5.98804 32.0564 6.70545 32.8437C7.42287 33.6309 8.28377 34.2502 9.28337 34.7014C10.283 35.1526 11.3974 35.3782 12.6313 35.3782C13.5974 35.3782 14.5349 35.1478 15.4436 34.687C16.3523 34.2262 17.1989 33.4869 17.9832 32.474L21.4842 34.975C20.4081 36.4631 19.0928 37.5432 17.5432 38.22C15.9936 38.8969 14.3435 39.2329 12.5931 39.2329C10.7517 39.2329 9.06336 38.9353 7.52809 38.3352C5.98804 37.74 4.66799 36.8951 3.5536 35.8007C2.444 34.7062 1.57353 33.3957 0.942207 31.8644C0.315663 30.3331 0 28.6338 0 26.7617C0 24.8896 0.315663 23.1086 0.942207 21.5389C1.56875 19.974 2.43922 18.6396 3.5536 17.5355C4.66321 16.4314 5.98804 15.5818 7.52809 14.9865C9.06336 14.3913 10.7565 14.0889 12.5931 14.0889C14.2096 14.0889 15.7066 14.3769 17.0889 14.9481C18.4711 15.5242 19.7529 16.4986 20.9438 17.8715L17.6437 20.3053V20.3101Z" fill="#50533F"/>
<path d="M34.646 36.3958H34.5456C33.9621 37.3223 33.2207 37.9895 32.3216 38.4071C31.4224 38.8248 30.4372 39.0312 29.3562 39.0312C28.6149 39.0312 27.8927 38.9304 27.1849 38.7287C26.477 38.5271 25.8505 38.2199 25.3005 37.8167C24.7504 37.4135 24.3056 36.9046 23.9708 36.295C23.636 35.6853 23.4639 34.9749 23.4639 34.1637C23.4639 33.2852 23.6217 32.5363 23.9374 31.9171C24.253 31.2979 24.6739 30.7794 25.2 30.3618C25.7261 29.9442 26.3383 29.613 27.0366 29.3633C27.7301 29.1137 28.4571 28.9313 29.208 28.8065C29.9589 28.6817 30.7193 28.6049 31.4798 28.5713C32.2403 28.5377 32.9625 28.5185 33.632 28.5185H34.6412V28.0769C34.6412 27.064 34.2921 26.3007 33.5986 25.7967C32.9003 25.2879 32.0155 25.0383 30.9393 25.0383C30.088 25.0383 29.2893 25.1919 28.548 25.4943C27.8066 25.7967 27.1657 26.2095 26.6301 26.728L24.5113 24.5966C25.4105 23.675 26.4579 23.0077 27.6584 22.6045C28.8588 22.2013 30.0976 21.9949 31.3794 21.9949C32.5224 21.9949 33.4886 22.1245 34.2729 22.3837C35.0573 22.6429 35.7078 22.9741 36.2243 23.3822C36.7409 23.7854 37.1378 24.2558 37.42 24.7839C37.7022 25.3119 37.9031 25.8495 38.0274 26.3872C38.1518 26.9296 38.2235 27.4528 38.2474 27.9569C38.2713 28.4657 38.2809 28.9073 38.2809 29.2913V38.6183H34.646V36.3862V36.3958ZM34.4116 31.3603H33.5699C33.0103 31.3603 32.379 31.3843 31.6855 31.4275C30.9872 31.4707 30.3319 31.5811 29.715 31.7491C29.098 31.9171 28.5767 32.1667 28.151 32.4931C27.7253 32.8196 27.5101 33.2756 27.5101 33.8612C27.5101 34.2453 27.5962 34.5669 27.7636 34.8261C27.931 35.0853 28.151 35.3061 28.4188 35.4837C28.6867 35.6661 28.9928 35.7958 29.3276 35.8726C29.6623 35.9542 30.0019 35.9926 30.3367 35.9926C31.7285 35.9926 32.7568 35.6613 33.4168 34.9941C34.0768 34.3317 34.4116 33.4244 34.4116 32.2723V31.3603Z" fill="#50533F"/>
<path d="M51.8169 26.901C51.0325 25.7969 49.9755 25.2448 48.6507 25.2448C48.1102 25.2448 47.5841 25.3793 47.0676 25.6481C46.551 25.9169 46.2928 26.3585 46.2928 26.9682C46.2928 27.4626 46.508 27.8226 46.9337 28.0482C47.3593 28.2738 47.8998 28.4659 48.5502 28.6243C49.2007 28.7827 49.9038 28.9459 50.6547 29.1139C51.4056 29.2819 52.1086 29.5411 52.7591 29.8915C53.4095 30.242 53.95 30.7172 54.3757 31.3268C54.8013 31.9365 55.0165 32.7669 55.0165 33.8278C55.0165 34.7975 54.8109 35.6135 54.3948 36.2759C53.9787 36.9384 53.4382 37.476 52.7782 37.8793C52.1182 38.2825 51.3673 38.5801 50.5399 38.7577C49.7077 38.9401 48.8802 39.0265 48.048 39.0265C46.7902 39.0265 45.6375 38.8441 44.5805 38.4841C43.5235 38.1241 42.5813 37.4712 41.7539 36.5256L44.4466 33.991C44.9631 34.5766 45.518 35.0567 46.111 35.4263C46.7041 35.7959 47.4311 35.9831 48.2824 35.9831C48.5741 35.9831 48.8755 35.9495 49.1911 35.8823C49.5068 35.8151 49.7985 35.6999 50.0664 35.5463C50.3342 35.3879 50.5542 35.1911 50.7216 34.9559C50.889 34.7207 50.9751 34.4422 50.9751 34.1302C50.9751 33.5686 50.7599 33.151 50.3342 32.8821C49.9085 32.6133 49.3681 32.3925 48.7176 32.2245C48.0672 32.0565 47.3641 31.8981 46.6132 31.7493C45.8623 31.6053 45.1592 31.3652 44.5088 31.0388C43.8583 30.7124 43.3179 30.2564 42.8922 29.6707C42.4665 29.0851 42.2513 28.2738 42.2513 27.237C42.2513 26.3345 42.4378 25.5521 42.8061 24.8896C43.1744 24.2272 43.6622 23.6799 44.2696 23.2527C44.8771 22.8255 45.5706 22.5087 46.3549 22.3071C47.1393 22.1054 47.938 22.0046 48.7463 22.0046C49.8224 22.0046 50.889 22.1919 51.946 22.5615C53.003 22.9311 53.8543 23.5695 54.5048 24.472L51.8121 26.9058L51.8169 26.901Z" fill="#50533F"/>
<path d="M68.8198 36.3958H68.7194C68.1359 37.3223 67.3946 37.9895 66.4954 38.4071C65.5962 38.8248 64.611 39.0312 63.5301 39.0312C62.7887 39.0312 62.0665 38.9304 61.3587 38.7287C60.6508 38.5271 60.0243 38.2199 59.4743 37.8167C58.9243 37.4135 58.4795 36.9046 58.1447 36.295C57.8099 35.6853 57.6377 34.9749 57.6377 34.1637C57.6377 33.2852 57.7955 32.5363 58.1112 31.9171C58.4269 31.2979 58.8477 30.7794 59.3738 30.3618C59.8999 29.9442 60.5121 29.613 61.2104 29.3633C61.9039 29.1137 62.6309 28.9313 63.3818 28.8065C64.1327 28.6817 64.8932 28.6049 65.6536 28.5713C66.4141 28.5377 67.1363 28.5185 67.8059 28.5185H68.815V28.0769C68.815 27.064 68.4659 26.3007 67.7724 25.7967C67.0741 25.2879 66.1893 25.0383 65.1132 25.0383C64.2618 25.0383 63.4631 25.1919 62.7218 25.4943C61.9805 25.7967 61.3396 26.2095 60.8039 26.728L58.6851 24.5966C59.5843 23.675 60.6317 23.0077 61.8322 22.6045C63.0327 22.2013 64.2714 21.9949 65.5532 21.9949C66.6963 21.9949 67.6624 22.1245 68.4468 22.3837C69.2311 22.6429 69.8816 22.9741 70.3981 23.3822C70.9147 23.7854 71.3117 24.2558 71.5938 24.7839C71.876 25.3119 72.0769 25.8495 72.2013 26.3872C72.3256 26.9296 72.3973 27.4528 72.4213 27.9569C72.4452 28.4657 72.4547 28.9073 72.4547 29.2913V38.6183H68.8198V36.3862V36.3958ZM68.5855 31.3603H67.7437C67.1841 31.3603 66.5528 31.3843 65.8593 31.4275C65.161 31.4707 64.5058 31.5811 63.8888 31.7491C63.2718 31.9171 62.7505 32.1667 62.3248 32.4931C61.8991 32.8196 61.6839 33.2756 61.6839 33.8612C61.6839 34.2453 61.77 34.5669 61.9374 34.8261C62.1048 35.0853 62.3248 35.3061 62.5926 35.4837C62.8605 35.6661 63.1666 35.7958 63.5014 35.8726C63.8362 35.9542 64.1758 35.9926 64.5105 35.9926C65.9023 35.9926 66.9306 35.6613 67.5907 34.9941C68.2507 34.3317 68.5855 33.4244 68.5855 32.2723V31.3603Z" fill="#50533F"/>
<path d="M104.628 0V5.06912L126.849 13.2824V45.5501H131.579V10.1863L104.628 0Z" fill="#B70304"/>
</g>
<defs>
<clipPath id="clip0_459_5199">
<rect width="131.579" height="50" fill="white"/>
</clipPath>
</defs>
</svg>
